# This file uses centimeters as units for non-parametric coordinates.

v 2.065770 0.461898 -0.800037
v 2.065770 -0.461898 -0.800037
v 2.065770 -0.923800 -0.000000
v 2.065770 -0.461898 0.800037
v 2.065770 0.461898 0.800037
v 2.065770 0.923800 -0.000000
v 0.755937 0.487996 -0.781824
v 0.755937 -0.487995 -0.781824
v 0.755937 -0.975991 -0.000000
v 0.755937 -0.487996 0.781824
v 0.755937 0.487996 0.781824
v 0.755937 0.975991 0.000000
v 0.000000 0.549659 -0.880616
v -0.000000 -0.549659 -0.880616
v -0.000000 -1.099319 0.000000
v -0.000000 -0.549659 0.880616
v 0.000000 0.549659 0.880616
v 0.000000 1.099319 0.000000
v 1.301757 -0.000000 0.000000
v 1.207978 0.174993 0.280358
v 1.207978 -0.174993 0.280358
v 1.207978 -0.349986 -0.000000
v 1.207978 -0.174993 -0.280358
v 1.207978 0.174993 -0.280358
v 1.207978 0.349986 0.000000
v -2.065770 0.461898 0.800037
v -2.065770 -0.461898 0.800037
v -2.065770 -0.923800 0.000000
v -2.065770 -0.461898 -0.800037
v -2.065770 0.461898 -0.800037
v -2.065770 0.923800 0.000000
v -0.755937 0.487996 0.781824
v -0.755937 -0.487995 0.781824
v -0.755937 -0.975991 0.000000
v -0.755937 -0.487996 -0.781824
v -0.755937 0.487996 -0.781824
v -0.755937 0.975991 -0.000000
v -1.301757 0.000000 -0.000000
v -1.207978 0.174993 -0.280358
v -1.207978 -0.174993 -0.280358
v -1.207978 -0.349986 0.000000
v -1.207978 -0.174993 0.280358
v -1.207978 0.174993 0.280358
v -1.207978 0.349986 -0.000000
vt 1.000000 0.723596
vt 1.000000 0.276404
vt 0.524854 0.421644
vt 0.524854 0.578356
vt 1.000000 0.052806
vt 0.524854 0.343288
vt 1.000000 0.276404
vt 0.524854 0.421644
vt 1.000000 0.723596
vt 0.524854 0.578356
vt 1.000000 0.947194
vt 0.524854 0.656711
vt 0.328447 0.718507
vt 0.328447 0.281492
vt -0.000000 0.257959
vt -0.000000 0.742041
vt 0.328447 0.062985
vt -0.000000 0.015919
vt 0.328447 0.281492
vt -0.000000 0.257959
vt 0.328447 0.718507
vt -0.000000 0.742040
vt 0.328447 0.937015
vt -0.000000 0.984081
vt 0.630156 0.500000
vt 1.000000 0.723596
vt 1.000000 0.276404
vt 0.524854 0.421644
vt 0.524854 0.578356
vt 1.000000 0.052806
vt 0.524854 0.343288
vt 1.000000 0.276404
vt 0.524854 0.421644
vt 1.000000 0.723596
vt 0.524854 0.578356
vt 1.000000 0.947194
vt 0.524854 0.656711
vt 0.328447 0.718507
vt 0.328447 0.281492
vt -0.000000 0.257959
vt -0.000000 0.742041
vt 0.328447 0.062985
vt -0.000000 0.015919
vt 0.328447 0.281492
vt -0.000000 0.257959
vt 0.328447 0.718507
vt -0.000000 0.742040
vt 0.328447 0.937015
vt -0.000000 0.984081
vt 0.630156 0.500000
vn 0.819501 0.281400 -0.499231
vn 0.819501 -0.281399 -0.499231
vn 0.178796 -0.481193 -0.858187
vn 0.178796 0.481193 -0.858187
vn 0.831942 -0.554863 -0.000000
vn 0.194112 -0.980979 -0.000000
vn 0.819502 -0.281400 0.499231
vn 0.178796 -0.481193 0.858187
vn 0.819501 0.281400 0.499231
vn 0.178796 0.481193 0.858187
vn 0.831942 0.554862 -0.000000
vn 0.194112 0.980979 0.000000
vn 0.523041 0.410587 -0.746891
vn 0.523041 -0.410587 -0.746891
vn -0.000000 -0.484781 -0.874636
vn -0.000000 0.484781 -0.874636
vn 0.542846 -0.839832 -0.000000
vn 0.000000 -1.000000 0.000000
vn 0.523041 -0.410587 0.746891
vn 0.000000 -0.484781 0.874636
vn 0.523041 0.410587 0.746891
vn 0.000000 0.484781 0.874636
vn 0.542846 0.839832 0.000000
vn 0.000000 1.000000 0.000000
vn 1.000000 0.000000 -0.000000
vn -0.819501 0.281400 0.499231
vn -0.819501 -0.281399 0.499231
vn -0.178796 -0.481193 0.858187
vn -0.178796 0.481193 0.858187
vn -0.831942 -0.554863 0.000000
vn -0.194112 -0.980979 0.000000
vn -0.819502 -0.281400 -0.499231
vn -0.178796 -0.481193 -0.858187
vn -0.819501 0.281400 -0.499231
vn -0.178796 0.481193 -0.858187
vn -0.831942 0.554862 0.000000
vn -0.194112 0.980979 -0.000000
vn -0.523041 0.410587 0.746891
vn -0.523041 -0.410587 0.746891
vn -0.542846 -0.839832 0.000000
vn -0.523041 -0.410587 -0.746891
vn -0.523041 0.410587 -0.746891
vn -0.542846 0.839832 -0.000000
vn -1.000000 0.000000 0.000000
s 1
f 1/1/1 2/2/2 23/3/3 24/4/4
f 2/2/2 3/5/5 22/6/6 23/3/3
f 3/5/5 4/7/7 21/8/8 22/6/6
f 4/7/7 5/9/9 20/10/10 21/8/8
f 5/9/9 6/11/11 25/12/12 20/10/10
f 6/11/11 1/1/1 24/4/4 25/12/12
f 7/13/13 8/14/14 14/15/15 13/16/16
f 8/14/14 9/17/17 15/18/18 14/15/15
f 9/17/17 10/19/19 16/20/20 15/18/18
f 10/19/19 11/21/21 17/22/22 16/20/20
f 11/21/21 12/23/23 18/24/24 17/22/22
f 12/23/23 7/13/13 13/16/16 18/24/24
f 2/2/2 1/1/1 19/25/25
f 3/5/5 2/2/2 19/25/25
f 4/7/7 3/5/5 19/25/25
f 5/9/9 4/7/7 19/25/25
f 6/11/11 5/9/9 19/25/25
f 1/1/1 6/11/11 19/25/25
f 21/8/8 20/10/10 11/21/21 10/19/19
f 22/6/6 21/8/8 10/19/19 9/17/17
f 23/3/3 22/6/6 9/17/17 8/14/14
f 24/4/4 23/3/3 8/14/14 7/13/13
f 25/12/12 24/4/4 7/13/13 12/23/23
f 20/10/10 25/12/12 12/23/23 11/21/21
f 26/26/26 27/27/27 42/28/28 43/29/29
f 27/27/27 28/30/30 41/31/31 42/28/28
f 28/30/30 29/32/32 40/33/33 41/31/31
f 29/32/32 30/34/34 39/35/35 40/33/33
f 30/34/34 31/36/36 44/37/37 39/35/35
f 31/36/36 26/26/26 43/29/29 44/37/37
f 32/38/38 33/39/39 16/40/20 17/41/22
f 33/39/39 34/42/40 15/43/18 16/40/20
f 34/42/40 35/44/41 14/45/15 15/43/18
f 35/44/41 36/46/42 13/47/16 14/45/15
f 36/46/42 37/48/43 18/49/24 13/47/16
f 37/48/43 32/38/38 17/41/22 18/49/24
f 27/27/27 26/26/26 38/50/44
f 28/30/30 27/27/27 38/50/44
f 29/32/32 28/30/30 38/50/44
f 30/34/34 29/32/32 38/50/44
f 31/36/36 30/34/34 38/50/44
f 26/26/26 31/36/36 38/50/44
f 40/33/33 39/35/35 36/46/42 35/44/41
f 41/31/31 40/33/33 35/44/41 34/42/40
f 42/28/28 41/31/31 34/42/40 33/39/39
f 43/29/29 42/28/28 33/39/39 32/38/38
f 44/37/37 43/29/29 32/38/38 37/48/43
f 39/35/35 44/37/37 37/48/43 36/46/42
