# This file uses centimeters as units for non-parametric coordinates.

v 1.945564 -0.981444 4.147857
v 5.271479 2.413723 2.992742
v 5.168985 2.413723 2.693215
v 1.843069 -0.981444 3.848330
v 0.000000 0.865910 4.428307
v 0.000000 0.865910 4.111729
v 0.000000 -0.134090 4.111729
v 0.000000 -0.134090 4.428307
v -1.945564 -0.981444 4.147857
v -5.271479 2.413723 2.992742
v -5.168985 2.413723 2.693215
v -1.843069 -0.981444 3.848330
vt 0.324213 0.156448
vt 0.313006 0.156861
vt 0.380073 0.028432
vt 0.380098 0.028435
vt 0.401932 0.196959
vt 0.401957 0.196959
vt 0.359674 0.214142
vt 0.369831 0.210063
vt 0.369727 0.210068
vt 0.324223 0.156437
vt 0.411825 0.192910
vt 0.382446 0.007071
vt 0.374874 0.278627
vt 0.366581 0.286094
vt 0.520694 0.341665
vt 0.504110 0.328512
vt 0.401847 0.196949
vt 0.411844 0.192876
vt 0.369891 0.210046
vt 0.401872 0.196949
vt 0.504094 0.328531
vt 0.374888 0.278628
vt 0.369994 0.210041
vt 0.359942 0.214189
vn 0.264709 -0.853713 0.448446
vn 0.016034 -0.835808 -0.548788
vn 0.136460 0.133023 -0.981674
vn 0.577790 0.312494 0.753994
vn 0.000000 0.717823 0.696225
vn -0.000000 0.687317 -0.726358
vn -0.000000 -0.741609 -0.670832
vn -0.000000 -0.623526 0.781803
vn -0.264709 -0.853713 0.448446
vn -0.577790 0.312494 0.753994
vn -0.136460 0.133023 -0.981674
vn -0.016034 -0.835808 -0.548788
s 1
f 1/1/1 4/2/2 3/12/3 2/4/4
f 5/5/5 2/4/4 3/12/3 6/11/6
f 7/9/7 6/6/6 3/3/3 4/10/2
f 8/8/8 7/7/7 4/2/2 1/1/1
f 5/5/5 8/8/8 1/1/1 2/4/4
f 9/13/9 10/16/10 11/15/11 12/14/12
f 5/17/5 6/18/6 11/15/11 10/16/10
f 7/19/7 12/22/12 11/21/11 6/20/6
f 8/23/8 9/13/9 12/14/12 7/24/7
f 5/17/5 10/16/10 9/13/9 8/23/8
