# This file uses centimeters as units for non-parametric coordinates.

v 1.303618 6.703621 2.564909
v 1.466096 5.443818 2.392156
v 1.754358 5.803301 2.529678
v 1.641567 6.527021 2.489522
v 1.806296 5.803301 1.780219
v 1.466096 5.443818 1.787061
v 1.466096 6.832924 0.245218
v 1.806296 6.539104 0.248126
v 1.806296 5.533412 1.313561
v 1.466096 5.173929 1.319570
v 1.806296 5.863917 1.008735
v 1.466096 5.504435 1.013924
v 1.806296 5.395526 0.599694
v 1.466096 5.036044 0.604044
v 1.806296 5.803301 0.319658
v 1.466096 5.443818 0.323434
v 1.806296 5.529011 0.089678
v 1.466096 5.169528 0.092937
v 1.806296 5.553905 2.161498
v 1.466096 5.194423 2.113676
v 1.466096 6.826168 2.113676
v 1.806296 6.542164 2.161498
v 0.078003 6.826168 2.113676
v 0.078003 6.832924 0.245218
v 0.078003 5.369413 2.501264
v 0.096103 5.728896 3.013008
v 0.096103 6.527021 2.964410
v 0.078003 6.703621 2.728161
v 1.806296 5.859084 -0.191790
v 1.466096 5.499601 -0.189062
v 0.772050 5.510322 2.501264
v 0.951200 5.853906 2.979690
v 0.951200 6.511122 2.857496
v 0.772050 6.703621 2.656054
v 0.359698 5.269380 2.501264
v 0.523651 5.605662 3.049040
v 1.378748 5.642865 2.845727
v 1.119073 5.283382 2.501264
v 0.523651 6.527021 2.916908
v 1.300076 6.527021 2.738609
v 0.078003 6.781976 -1.995112
v 1.466096 6.781976 -1.995112
v 1.806296 6.537130 -1.995100
v 1.806296 5.803301 -1.995100
v 1.466096 5.443818 -1.995112
v 1.466096 5.285368 -0.537415
v 1.806296 5.644851 -0.539705
v 1.466096 5.561554 -0.882477
v 1.806296 5.921037 -0.884332
v 1.466096 5.267480 -1.141125
v 1.806296 5.626963 -1.142577
v 1.466096 5.404286 -1.499776
v 1.806296 5.763768 -1.500854
v 1.422590 6.797316 2.361486
v 0.078003 6.797316 2.376223
v 0.059045 6.178089 3.091120
v 0.505122 6.175015 3.077404
v 0.951200 6.180640 3.011152
v 1.348953 6.175944 2.880643
v 1.719884 6.179946 2.592030
v 1.843354 6.174264 2.232558
v 1.843354 6.180530 1.856395
v 1.843354 6.173716 1.406602
v 1.843354 6.181961 1.029836
v 1.843354 6.170245 0.603069
v 1.843354 6.180419 0.310897
v 1.843354 6.173419 0.057492
v 1.843354 6.181728 -0.222716
v 1.843354 6.176376 -0.585709
v 1.843354 6.183262 -0.945272
v 1.843354 6.175920 -1.252966
v 1.843354 6.179328 -1.588513
v 1.843354 6.180306 -1.992574
v 0.078003 -0.028413 1.773041
v 1.425730 -0.028413 -11.038520
v 0.078003 5.790297 2.350226
v 1.425730 5.797467 -11.038520
v 1.425730 -0.028413 1.399391
v 1.344425 -0.028413 1.595677
v 1.148139 -0.028413 1.773041
v 1.148143 5.796033 2.350226
v 1.344426 5.797047 2.172862
v 1.425730 5.797467 1.976576
v 1.425730 4.120623 -11.038520
v 1.425730 4.120623 1.841357
v 1.344426 4.120324 2.037644
v 1.148141 4.119602 2.215008
v 0.078003 4.115517 2.215008
v 0.078003 2.337235 2.229619
v 1.148140 2.339567 2.229619
v 1.344425 2.339979 2.052255
v 1.425730 2.340150 1.855968
v 1.425730 2.340150 -11.038520
v 0.078003 -6.455451 1.473883
v 1.148139 -6.455451 1.473883
v 1.425730 -6.455450 -11.038520
v 1.425730 -6.455451 1.100233
v 1.344425 -6.455451 1.296520
v 0.078003 -3.136357 1.793967
v 1.148139 -3.136357 1.793967
v 1.344425 -3.136357 1.616603
v 1.425730 -3.136357 1.420317
v 1.425730 -3.136356 -11.038520
v 0.078003 6.781976 -11.144135
v 1.466096 6.781976 -11.144135
v 1.806296 6.537130 -11.144123
v 1.843354 6.180306 -11.141597
v 1.806296 5.803301 -11.144123
v 1.466096 5.443818 -11.144135
vt 0.882304 0.365870
vt 0.896633 0.435483
vt 0.802430 0.494431
vt 0.817997 0.426476
vt 0.692545 0.690731
vt 0.645920 0.690825
vt 0.645920 0.509645
vt 0.692354 0.500713
vt 0.734454 0.483538
vt 0.736387 0.519370
vt 0.946426 0.499593
vt 0.855427 0.541186
vt 0.736686 0.568434
vt 0.909398 0.569636
vt 0.801871 0.602926
vt 0.736819 0.611284
vt 0.995126 0.632063
vt 0.895354 0.646451
vt 0.737186 0.662046
vt 0.933115 0.698215
vt 0.815676 0.691924
vt 0.737009 0.697261
vt 0.970013 0.749120
vt 0.866405 0.727233
vt 0.736734 0.727473
vt 0.817849 0.339279
vt 0.759540 0.403628
vt 0.646147 0.481875
vt 0.632099 0.456982
vt 0.676011 0.459261
vt 0.709596 0.423891
vt 0.498492 0.511031
vt 0.498492 0.697212
vt 0.498492 0.265921
vt 0.498492 0.205666
vt 0.582943 0.195434
vt 0.582379 0.279320
vt 0.498492 0.389230
vt 0.498492 0.327433
vt 0.559875 0.341358
vt 0.552648 0.396452
vt 0.577399 0.446934
vt 0.498492 0.446676
vt 0.498492 0.483455
vt 0.736239 0.761474
vt 0.901733 0.782270
vt 0.800989 0.761640
vt 0.720689 0.319194
vt 0.783679 0.238162
vt 0.671344 0.360384
vt 0.646344 0.421892
vt 0.605951 0.407641
vt 0.616402 0.344798
vt 0.671981 0.246329
vt 0.648845 0.298777
vt 0.735631 0.806303
vt 0.923384 0.833870
vt 0.834609 0.808033
vt 0.869027 0.871718
vt 0.783818 0.847968
vt 0.734923 0.850452
vt 0.888660 0.933596
vt 0.822546 0.900948
vt 0.734563 0.887550
vt 0.850771 0.960595
vt 0.794369 0.935413
vt 0.734164 0.928498
vt 0.819600 0.988179
vt 0.777181 0.988387
vt 0.733620 0.988420
vt 0.691330 0.988419
vt 0.645895 0.988419
vt 0.498492 0.988419
vt 0.108753 0.614529
vt 0.109901 0.807126
vt 0.013844 0.806307
vt 0.013844 0.613769
vt 0.151289 0.806442
vt 0.148909 0.613730
vt 0.479256 0.611167
vt 0.479256 0.804287
vt 0.131008 0.614150
vt 0.132863 0.806854
vt 0.105569 0.985409
vt 0.126181 0.985409
vt 0.142706 0.985409
vt 0.479256 0.985409
vt 0.013844 0.985409
vt 0.114436 0.343571
vt 0.013844 0.343571
vt 0.138528 0.343571
vt 0.157811 0.343571
vt 0.479256 0.343571
vt 0.108490 0.985409
vt 0.013844 0.985409
vt 0.013844 0.678483
vt 0.100804 0.681249
vt 0.479190 0.985409
vt 0.151337 0.985409
vt 0.142955 0.681296
vt 0.479515 0.679369
vt 0.132261 0.985409
vt 0.124176 0.681380
vt 0.013844 0.343571
vt 0.123242 0.343571
vt 0.146969 0.343571
vt 0.166009 0.343571
vt 0.476434 0.343571
vt 0.500909 0.990039
vt 0.646240 0.990295
vt 0.646259 0.996254
vt 0.500909 0.996522
vt 0.691948 0.990351
vt 0.691966 0.996194
vt 0.733766 0.990139
vt 0.733781 0.995907
vt 0.776497 0.990421
vt 0.818758 0.990437
vt 0.818779 0.996131
vt 0.776517 0.996133
vn 0.704222 -0.707515 0.059115
vn 0.734294 -0.678015 -0.033283
vn 0.923065 -0.384266 -0.017074
vn 0.917814 -0.385863 0.093420
vn 0.978691 0.205339 -0.000580
vn 0.336698 0.941584 -0.007336
vn 0.335620 0.938290 0.083489
vn 0.805136 0.550276 0.221252
vn 0.986338 0.059380 0.153660
vn 0.999918 0.012831 -0.000516
vn 0.719015 -0.682043 -0.133544
vn 0.922216 -0.380308 -0.069885
vn 0.999898 0.013919 -0.003057
vn 0.725913 -0.687726 0.009176
vn 0.931002 -0.364977 0.005252
vn 0.999869 0.016189 0.000721
vn 0.724893 -0.685921 -0.063576
vn 0.935421 -0.352153 -0.031227
vn 0.999853 0.017055 -0.001692
vn 0.724665 -0.687041 -0.053247
vn 0.935732 -0.351763 -0.025867
vn 0.999842 0.017735 -0.001284
vn 0.726619 -0.687039 0.001326
vn 0.931663 -0.363320 -0.001396
vn 0.999915 0.012928 -0.001661
vn 0.565375 -0.672632 0.477407
vn 0.747524 -0.387439 0.539536
vn 0.271592 0.908271 0.318248
vn 0.326753 0.755416 0.567961
vn 0.651219 0.494548 0.575618
vn 0.811072 0.139518 0.568064
vn 0.000304 0.998311 0.058096
vn 0.000000 0.999954 -0.009561
vn -0.173464 -0.488465 0.855168
vn -0.274471 -0.781467 0.560334
vn 0.118138 -0.857037 0.501528
vn 0.102069 -0.512564 0.852561
vn 0.067406 0.608958 0.790333
vn 0.013125 0.138196 0.990318
vn 0.085491 0.159523 0.983486
vn 0.098224 0.607183 0.788467
vn 0.083955 0.841585 0.533559
vn 0.038625 0.891904 0.450572
vn 0.006503 0.979376 0.201940
vn 0.999934 0.010282 -0.005145
vn 0.718419 -0.681356 -0.140103
vn 0.921598 -0.380841 -0.074953
vn 0.358375 -0.429431 0.828949
vn 0.171530 -0.762978 0.623251
vn 0.460578 0.171878 0.870819
vn 0.374362 0.545177 0.750090
vn 0.174317 0.593924 0.785409
vn 0.227022 0.176529 0.957757
vn 0.130490 -0.800708 0.584670
vn 0.201314 -0.456797 0.866492
vn 0.999982 0.005099 -0.003309
vn 0.725299 -0.686434 -0.052432
vn 0.918225 -0.394917 -0.030044
vn 0.724062 -0.685197 0.078987
vn 0.923295 -0.382083 0.039239
vn 0.999971 0.007522 0.000823
vn 0.711966 -0.672697 0.201451
vn 0.917020 -0.383658 0.108998
vn 0.999906 0.012121 0.006458
vn 0.717277 -0.679292 -0.155164
vn 0.909774 -0.405764 -0.087562
vn 0.999965 0.006774 -0.004875
vn 0.726025 -0.687121 -0.027430
vn 0.910214 -0.413844 -0.015616
vn 0.999992 0.003743 -0.001070
vn 0.870970 0.491330 -0.002534
vn 0.317737 0.948142 -0.008436
vn 0.000000 0.999935 -0.011368
vn 0.358677 -0.085131 0.929572
vn 0.359243 -0.033738 0.932634
vn 0.000172 -0.036148 0.999346
vn 0.000091 -0.091051 0.995846
vn 0.980768 -0.007061 0.195049
vn 0.980655 -0.017961 0.194919
vn 1.000000 0.000000 -0.000000
vn 1.000000 0.000000 0.000000
vn 0.816265 -0.052869 0.575253
vn 0.817050 -0.020851 0.576189
vn 0.324323 0.419601 0.847791
vn 0.739554 0.423616 0.523077
vn 0.878754 0.443958 0.175193
vn 1.000000 0.000000 0.000000
vn 0.000369 -0.080436 0.996760
vn 0.358663 -0.085817 0.929514
vn 0.000104 -0.091788 0.995779
vn 0.816248 -0.053293 0.575238
vn 0.980652 -0.018104 0.194919
vn 1.000000 -0.000000 -0.000000
vn 0.000000 -0.044689 0.999001
vn 0.359063 -0.041729 0.932380
vn 0.980754 -0.008745 0.195050
vn 1.000000 0.000000 0.000000
vn 0.816938 -0.025813 0.576148
vn 0.000000 -0.095992 0.995382
vn 0.358115 -0.089625 0.929366
vn 0.816011 -0.055487 0.575367
vn 0.980625 -0.018804 0.194990
vn 1.000000 0.000000 0.000000
vn 0.306884 0.951747 0.000000
vn 0.000000 1.000000 0.000000
vn 0.865212 0.501406 0.000000
vn 0.999996 0.002752 0.000000
vn 0.726318 -0.687358 0.000000
vn 0.909834 -0.414973 0.000000
s 1
f 20/1/1 6/2/2 5/3/3 19/4/4
f 8/5/5 7/6/6 21/7/7 22/8/8
f 22/8/8 61/9/9 62/10/10 8/5/5
f 6/2/2 10/11/11 9/12/12 5/3/3
f 8/5/5 62/10/10 63/13/13
f 10/11/11 12/14/14 11/15/15 9/12/12
f 8/5/5 63/13/13 64/16/16
f 12/14/14 14/17/17 13/18/18 11/15/15
f 8/5/5 64/16/16 65/19/19
f 14/17/17 16/20/20 15/21/21 13/18/18
f 8/5/5 65/19/19 66/22/22
f 16/20/20 18/23/23 17/24/24 15/21/21
f 8/5/5 66/22/22 67/25/25
f 2/26/26 20/1/1 19/4/4 3/27/27
f 22/8/8 54/28/28 1/29/29 4/30/30
f 60/31/31 61/9/9 22/8/8 4/30/30
f 23/32/32 21/7/7 7/6/6 24/33/33
f 26/34/34 25/35/35 35/36/36 36/37/37
f 27/38/38 56/39/39 57/40/40 39/41/41
f 34/42/42 28/43/43 27/38/38 39/41/41
f 54/28/28 55/44/44 28/43/43 34/42/42
f 8/5/5 67/25/25 68/45/45
f 18/23/23 30/46/46 29/47/47 17/24/24
f 37/48/48 38/49/49 2/26/26 3/27/27
f 59/50/50 40/51/51 33/52/52 58/53/53
f 1/29/29 34/42/42 33/52/52 40/51/51
f 36/37/37 35/36/36 31/54/54 32/55/55
f 32/55/55 31/54/54 38/49/49 37/48/48
f 33/52/52 39/41/41 57/40/40 58/53/53
f 34/42/42 39/41/41 33/52/52
f 40/51/51 59/50/50 60/31/31 4/30/30
f 1/29/29 40/51/51 4/30/30
f 8/5/5 68/45/45 69/56/56
f 30/46/46 46/57/57 47/58/58 29/47/47
f 46/57/57 48/59/59 49/60/60 47/58/58
f 8/5/5 69/56/56 70/61/61
f 48/59/59 50/62/62 51/63/63 49/60/60
f 8/5/5 70/61/61 71/64/64
f 50/62/62 52/65/65 53/66/66 51/63/63
f 8/5/5 71/64/64 72/67/67
f 52/65/65 45/68/68 44/69/69 53/66/66
f 8/5/5 72/67/67 73/70/70 43/71/71
f 43/71/71 42/72/72 7/6/6 8/5/5
f 41/73/73 24/33/33 7/6/6 42/72/72
f 22/8/8 21/7/7 54/28/28
f 21/7/7 23/32/32 55/44/44 54/28/28
f 54/28/28 34/42/42 1/29/29
f 56/39/39 26/34/34 36/37/37 57/40/40
f 58/53/53 57/40/40 36/37/37 32/55/55
f 37/48/48 59/50/50 58/53/53 32/55/55
f 60/31/31 59/50/50 37/48/48 3/27/27
f 3/27/27 19/4/4 61/9/9 60/31/31
f 62/10/10 61/9/9 19/4/4 5/3/3
f 63/13/13 62/10/10 5/3/3 9/12/12
f 64/16/16 63/13/13 9/12/12 11/15/15
f 65/19/19 64/16/16 11/15/15 13/18/18
f 66/22/22 65/19/19 13/18/18 15/21/21
f 67/25/25 66/22/22 15/21/21 17/24/24
f 68/45/45 67/25/25 17/24/24 29/47/47
f 69/56/56 68/45/45 29/47/47 47/58/58
f 70/61/61 69/56/56 47/58/58 49/60/60
f 71/64/64 70/61/61 49/60/60 51/63/63
f 72/67/67 71/64/64 51/63/63 53/66/66
f 73/70/70 72/67/67 53/66/66 44/69/69
s 4
f 90/74/74 87/75/75 88/76/76 89/77/77
f 85/78/78 92/79/79 93/80/80 84/81/81
f 90/74/74 91/82/82 86/83/83 87/75/75
f 91/82/82 92/79/79 85/78/78 86/83/83
f 81/84/84 82/85/85 83/86/86
f 83/86/86 85/78/78 84/81/81 77/87/87
f 86/83/83 85/78/78 83/86/86 82/85/85
f 87/75/75 86/83/83 82/85/85 81/84/84
f 88/76/76 87/75/75 81/84/84 76/88/88
f 80/89/89 90/74/74 89/77/77 74/90/90
f 80/89/89 79/91/91 91/82/82 90/74/74
f 79/91/91 78/92/92 92/79/79 91/82/82
f 93/80/80 92/79/79 78/92/92 75/93/93
f 80/94/89 74/95/90 99/96/94 100/97/95
f 75/98/93 78/99/92 102/100/96 103/101/97
f 79/102/91 80/94/89 100/97/95 101/103/98
f 78/99/92 79/102/91 101/103/98 102/100/96
f 100/97/95 99/96/94 94/104/99 95/105/100
f 101/103/98 100/97/95 95/105/100 98/106/101
f 102/100/96 101/103/98 98/106/101 97/107/102
f 103/101/97 102/100/96 97/107/102 96/108/103
s 1
f 41/109/73 42/110/72 105/111/104 104/112/105
f 42/110/72 43/113/71 106/114/106 105/111/104
f 43/113/71 73/115/70 107/116/107 106/114/106
f 44/117/69 45/118/68 109/119/108 108/120/109
f 73/115/70 44/117/69 108/120/109 107/116/107
