# This file uses centimeters as units for non-parametric coordinates.

v -1.794436 2.467447 1.864466
v -0.753653 2.476586 2.930239
v -0.727146 2.134511 3.221311
v -2.274255 1.402844 2.884142
v -2.315658 2.026747 2.273183
v -1.996889 3.709826 2.955787
v -1.874511 3.469003 3.168104
v -2.116480 3.519464 3.012674
v -2.174818 3.531481 2.806063
v -1.924741 3.538980 2.601704
v -1.792646 3.469451 2.936769
v -1.527080 2.872921 3.343767
v -1.439457 3.172725 2.881417
v -1.756043 3.049798 2.285404
v -2.253608 2.827591 2.560014
v -2.261853 2.766923 3.034737
v -2.250895 2.111832 3.041759
v -2.263274 2.504200 2.437590
v -1.564362 1.420562 3.485578
v -0.793788 2.749740 2.569826
v -2.190494 3.277723 3.013547
v -2.222453 3.298497 2.742215
v 1.794436 2.467447 1.864466
v 0.753653 2.476586 2.930239
v 0.727146 2.134511 3.221311
v 2.274255 1.402844 2.884142
v 2.315658 2.026747 2.273183
v 1.996889 3.709826 2.955787
v 1.874511 3.469003 3.168104
v 2.116480 3.519464 3.012674
v 2.174818 3.531481 2.806063
v 1.924741 3.538980 2.601704
v 1.792646 3.469451 2.936769
v 1.527080 2.872921 3.343767
v 1.439457 3.172725 2.881417
v 1.756043 3.049798 2.285404
v 2.253608 2.827591 2.560014
v 2.261853 2.766923 3.034737
v 2.250895 2.111832 3.041759
v 2.263274 2.504200 2.437590
v 1.564362 1.420562 3.485578
v 0.793788 2.749740 2.569826
v 2.190494 3.277723 3.013547
v 2.222453 3.298497 2.742215
vt 0.418430 0.223543
vt 0.432660 0.195016
vt 0.459345 0.222703
vt 0.447825 0.188723
vt 0.487067 0.211987
vt 0.500512 0.226823
vt 0.433342 0.123856
vt 0.532451 0.093803
vt 0.519257 0.149796
vt 0.337207 0.284689
vt 0.557404 0.168234
vt 0.366797 0.213523
vt 0.401031 0.158726
vt 0.352498 0.123430
vt 0.373074 0.091637
vt 0.390064 0.057531
vt 0.475662 0.014366
vt 0.552930 0.035687
vt 0.597654 0.098254
vt 0.303584 0.218855
vt 0.577734 0.137566
vt 0.371079 0.281172
vt 0.442906 0.259234
vt 0.293852 0.287184
vt 0.502706 0.195058
vt 0.523354 0.209037
vt 0.420823 0.272273
vt 0.418430 0.223543
vt 0.432660 0.195016
vt 0.459345 0.222703
vt 0.447825 0.188723
vt 0.487067 0.211987
vt 0.500512 0.226823
vt 0.442906 0.259234
vt 0.433342 0.123856
vt 0.532451 0.093803
vt 0.519257 0.149796
vt 0.577734 0.137566
vt 0.557404 0.168234
vt 0.337207 0.284689
vt 0.366797 0.213523
vt 0.371079 0.281172
vt 0.401031 0.158726
vt 0.352498 0.123430
vt 0.373074 0.091637
vt 0.390064 0.057531
vt 0.420823 0.272273
vt 0.502706 0.195058
vt 0.523354 0.209037
vt 0.475662 0.014366
vt 0.552930 0.035687
vt 0.597654 0.098254
vt 0.293852 0.287184
vt 0.303584 0.218855
vn -0.041060 0.736479 -0.675213
vn -0.029429 0.976696 0.212600
vn 0.754748 0.654613 0.042861
vn 0.027532 0.509166 0.860228
vn -0.724562 0.391162 0.567453
vn -0.802775 0.555487 -0.216762
vn 0.034817 0.278651 0.959761
vn -0.830036 0.046286 0.555786
vn -0.844970 0.015233 0.534597
vn -0.885566 0.201713 -0.418431
vn -0.910356 0.206289 -0.358744
vn -0.191684 0.588110 -0.785738
vn 0.685701 0.721578 0.095594
vn 0.614147 0.620840 0.487218
vn 0.605043 0.788287 -0.111927
vn 0.444586 0.364550 0.818197
vn -0.894207 0.271208 -0.356148
vn -0.812968 0.150498 0.562524
vn -0.166368 0.053007 0.984638
vn -0.856263 0.028468 0.515755
vn -0.929114 0.236768 -0.284058
vn -0.185505 0.652478 -0.734752
vn 0.041060 0.736479 -0.675213
vn -0.754748 0.654613 0.042861
vn 0.029429 0.976696 0.212601
vn -0.027532 0.509166 0.860228
vn 0.724562 0.391162 0.567453
vn 0.802775 0.555488 -0.216762
vn -0.034817 0.278652 0.959761
vn 0.844970 0.015233 0.534597
vn 0.830036 0.046286 0.555786
vn 0.910356 0.206289 -0.358744
vn 0.885566 0.201713 -0.418431
vn 0.191684 0.588110 -0.785738
vn -0.685702 0.721578 0.095594
vn -0.605043 0.788287 -0.111927
vn -0.614147 0.620840 0.487218
vn -0.444586 0.364551 0.818197
vn 0.894207 0.271208 -0.356147
vn 0.812968 0.150498 0.562524
vn 0.166368 0.053007 0.984638
vn 0.856263 0.028468 0.515755
vn 0.929114 0.236768 -0.284058
vn 0.185505 0.652478 -0.734752
s 1
f 10/1/1 6/3/2 11/2/3
f 11/2/3 6/3/2 7/4/4
f 7/4/4 6/3/2 8/5/5
f 8/5/5 6/3/2 9/6/6
f 9/23/6 6/3/2 10/1/1
f 12/7/7 16/9/8 17/8/9
f 17/8/9 16/9/8 15/11/10 18/21/11
f 18/10/11 15/22/10 14/12/12
f 13/13/13 2/15/14 20/14/15
f 2/15/14 13/13/13 12/7/7 3/16/16
f 13/13/13 11/2/3 7/4/4 12/7/7
f 22/27/17 9/23/6 10/1/1
f 21/25/18 8/5/5 9/6/6 22/26/17
f 7/4/4 8/5/5 21/25/18
f 10/1/1 11/2/3 13/13/13 14/12/12
f 19/17/19 12/7/7 17/8/9 4/18/20
f 4/18/20 17/8/9 18/21/11 5/19/21
f 5/24/21 18/10/11 14/12/12 1/20/22
f 3/16/16 12/7/7 19/17/19
f 13/13/13 20/14/15 1/20/22 14/12/12
f 12/7/7 7/4/4 21/25/18 16/9/8
f 16/9/8 21/25/18 22/26/17 15/11/10
f 15/22/10 22/27/17 10/1/1 14/12/12
s 4
f 32/28/23 33/29/24 28/30/25
f 33/29/24 29/31/26 28/30/25
f 29/31/26 30/32/27 28/30/25
f 30/32/27 31/33/28 28/30/25
f 31/34/28 32/28/23 28/30/25
f 34/35/29 39/36/30 38/37/31
f 39/36/30 40/38/32 37/39/33 38/37/31
f 40/40/32 36/41/34 37/42/33
f 35/43/35 42/44/36 24/45/37
f 24/45/37 25/46/38 34/35/29 35/43/35
f 35/43/35 34/35/29 29/31/26 33/29/24
f 44/47/39 32/28/23 31/34/28
f 43/48/40 44/49/39 31/33/28 30/32/27
f 29/31/26 43/48/40 30/32/27
f 32/28/23 36/41/34 35/43/35 33/29/24
f 41/50/41 26/51/42 39/36/30 34/35/29
f 26/51/42 27/52/43 40/38/32 39/36/30
f 27/53/43 23/54/44 36/41/34 40/40/32
f 25/46/38 41/50/41 34/35/29
f 35/43/35 36/41/34 23/54/44 42/44/36
f 34/35/29 38/37/31 43/48/40 29/31/26
f 38/37/31 37/39/33 44/49/39 43/48/40
f 37/42/33 36/41/34 32/28/23 44/47/39
