# This file uses centimeters as units for non-parametric coordinates.

v -8.269993 -5.362525 12.615253
v 16.754982 -5.487167 13.127714
v 18.049505 2.436123 9.697051
v -5.062006 2.531699 9.462809
v 39.200241 -5.575584 15.298916
v 38.678631 2.455629 11.279936
v 55.840389 -5.576862 15.298916
v 53.974976 2.510361 11.280250
v 70.416634 -5.577025 13.474811
v 67.519974 2.520776 9.913317
v -3.017370 3.143755 -8.520035
v 22.268625 2.690249 -9.030999
v 21.182394 -6.206479 -12.123780
v -5.784402 -5.528126 -11.386309
v 43.592583 2.297763 -11.573019
v 44.483559 -6.645646 -15.612896
v 58.238708 2.445567 -11.666366
v 61.106770 -6.627549 -15.515042
v 67.529686 2.974469 -9.991660
v 70.599869 -6.031814 -13.208453
v 74.697830 -5.850499 -4.174023
v 71.039841 2.938503 -3.453606
v 79.286415 -5.620175 0.321606
v 75.521797 2.810699 0.089946
v 74.979271 -5.443974 4.554286
v 71.297310 2.858856 3.436594
v -10.255064 -5.795852 -5.311178
v -6.579250 2.968488 -4.333687
v -13.663359 -5.618562 0.160752
v -9.938190 2.776410 -0.078363
v -9.243918 -5.316016 6.219987
v -5.711529 2.861273 4.690169
vt -2.823890 0.720652
vt -1.781719 0.720652
vt -1.746483 0.982484
vt -2.778068 0.982484
vt -0.823826 0.720652
vt -0.848275 0.982484
vt -0.143711 0.720652
vt -0.191994 0.982484
vt 0.413524 0.720652
vt 0.410377 0.982484
vt 4.446517 0.982484
vt 3.410743 0.982484
vt 3.429980 0.720652
vt 4.487655 0.720652
vt 2.557681 0.982484
vt 2.518260 0.720652
vt 1.973719 0.982484
vt 1.912415 0.720652
vt 4.963196 0.982484
vt 1.577185 0.982484
vt 1.583768 0.720652
vt -3.313868 0.720652
vt 1.226348 0.720652
vt 1.265253 0.982484
vt 1.000194 0.720652
vt 1.003154 0.982484
vt 0.784709 0.720652
vt 0.748501 0.982484
vt 4.746595 0.720652
vt 4.701030 0.982484
vt 4.963196 0.720652
vt -3.313868 0.982484
vt -3.030326 0.720652
vt -3.016598 0.982484
vn -0.930673 -0.156669 0.330611
vn -0.720936 -0.149082 0.676776
vn -0.599375 0.456334 0.657654
vn -0.825124 0.488292 0.284148
vn -0.396467 -0.067071 0.915595
vn -0.291695 0.526798 0.798372
vn 0.065456 -0.013871 0.997759
vn 0.044351 0.535110 0.843617
vn 0.557559 -0.093108 0.824899
vn 0.467092 0.563355 0.681511
vn -0.567861 0.562380 -0.601051
vn -0.472650 0.548892 -0.689434
vn -0.595183 0.008167 -0.803549
vn -0.700583 -0.052824 -0.711613
vn -0.298529 0.532180 -0.792253
vn -0.313869 -0.004338 -0.949456
vn 0.054207 0.547042 -0.835348
vn 0.126596 -0.026677 -0.991596
vn 0.500245 0.590693 -0.633117
vn 0.652057 -0.025369 -0.757745
vn 0.806749 -0.061836 -0.587650
vn 0.674789 0.475014 -0.564820
vn 0.989154 -0.144246 0.027692
vn 0.821266 0.570541 -0.002288
vn 0.741108 -0.117054 0.661103
vn 0.654502 0.476449 0.587047
vn -0.862992 -0.100220 -0.495177
vn -0.757480 0.505231 -0.413480
vn -0.993615 -0.108809 0.029817
vn -0.873899 0.483891 0.046376
vn -0.967059 -0.109824 0.229642
vn -0.869315 0.459553 0.181940
s 1
f 1/1/1 2/2/2 3/3/3 4/4/4
f 2/2/2 5/5/5 6/6/6 3/3/3
f 5/5/5 7/7/7 8/8/8 6/6/6
f 7/7/7 9/9/9 10/10/10 8/8/8
f 11/11/11 12/12/12 13/13/13 14/14/14
f 12/12/12 15/15/15 16/16/16 13/13/13
f 15/15/15 17/17/17 18/18/18 16/16/16
f 17/17/17 19/20/19 20/21/20 18/18/18
f 21/23/21 20/21/20 19/20/19 22/24/22
f 23/25/23 21/23/21 22/24/22 24/26/24
f 25/27/25 23/25/23 24/26/24 26/28/26
f 9/9/9 25/27/25 26/28/26 10/10/10
f 14/14/14 27/29/27 28/30/28 11/11/11
f 27/29/27 29/31/29 30/19/30 28/30/28
f 29/22/29 31/33/31 32/34/32 30/32/30
f 31/33/31 1/1/1 4/4/4 32/34/32
