# This file uses centimeters as units for non-parametric coordinates.

v 2.137273 2.507983 2.629836
v 2.591432 1.733234 2.132459
v 3.421537 3.022641 2.748482
v 2.096504 2.656796 2.351697
v 2.550664 1.882047 1.854320
v 3.419392 2.200642 2.607388
v 2.950024 2.630191 2.912267
v 2.802753 2.754447 2.511674
v 3.245510 2.147500 2.185326
v 2.603385 2.480186 2.919012
v 3.021608 1.828521 2.450315
v -2.137273 2.507983 2.629836
v -2.591432 1.733234 2.132459
v -3.421537 3.022641 2.748482
v -2.096504 2.656796 2.351697
v -2.550664 1.882047 1.854320
v -3.419392 2.200642 2.607388
v -2.950024 2.630191 2.912267
v -2.802753 2.754447 2.511674
v -3.245510 2.147500 2.185326
v -2.603385 2.480186 2.919012
v -3.021608 1.828521 2.450315
v -1.680068 0.608837 3.870512
v -0.695344 0.917244 4.188193
v 0.125672 1.352987 4.200427
v 1.703093 1.600842 3.662204
v -1.766058 1.165700 3.739050
v -0.749150 1.731060 4.111855
v 0.239410 2.075208 4.057273
v 2.016974 2.053677 3.377184
v -1.615155 3.370897 2.464040
v -0.470695 3.477536 2.627913
v 0.371674 3.268316 2.566393
v 2.265001 2.930989 1.913806
v -0.412607 0.429328 4.291854
v 0.010527 0.764388 4.213006
v 0.376747 0.605133 4.195942
v 0.191138 1.039298 4.237187
v 1.167232 1.036131 3.903687
v 0.266233 0.711968 4.371362
v 0.739193 1.105660 4.349275
v 0.960920 1.545486 4.246655
v 1.254014 2.288463 3.950593
v 1.376943 3.417182 2.379696
v -2.892493 0.663210 3.108181
v -2.661050 0.827239 2.922114
v -2.728672 2.575829 2.009432
v -2.512408 0.024257 1.123903
v -2.652523 1.807756 1.611543
v -1.786476 1.382818 3.726954
v -2.747355 0.432951 2.431316
v -2.622403 0.798431 1.660970
v -3.083608 0.654371 2.110847
v -3.072162 1.378780 2.439577
v -2.387166 1.085873 3.279392
v 1.340097 2.998539 3.262586
v 2.276037 2.664315 2.924513
v 2.475005 1.523561 2.879954
v 2.844667 1.938684 1.940232
v 2.633302 -0.113135 2.163825
v 2.830830 1.749965 2.665597
v 2.624686 0.641138 2.500265
v 2.966781 0.724683 2.391626
v 3.066103 0.634634 2.049293
v -1.541880 3.085784 1.594660
v -0.463339 3.197249 1.843629
v 0.402351 3.226665 1.817285
v 1.385426 3.079580 1.636330
v 2.005303 2.726096 1.197849
v -2.260726 2.446256 1.420311
v 2.853472 0.718685 1.670317
v 2.760770 1.680111 1.315761
v -2.648371 1.708587 3.056009
v -2.787351 2.265128 2.555427
v -1.737290 2.922765 3.155427
v -1.794854 2.164432 3.638555
v -0.592942 3.077024 3.408496
v -0.702337 2.392179 3.949280
v 0.399783 2.953444 3.362552
v 0.387665 2.554912 3.955822
v -1.779968 0.907781 3.966448
v -0.779152 1.344665 4.311691
v 0.182716 1.760705 4.306093
v 0.420754 2.655583 2.984142
v 0.000000 2.793464 2.877544
v -0.420754 2.655583 2.984142
v -0.595036 2.322709 3.241492
v -0.420754 1.989835 3.498842
v 0.000000 1.851954 3.605440
v 0.420754 1.989835 3.498842
v 0.595036 2.322709 3.241492
v -0.000000 3.507168 4.773551
v -0.000000 3.229311 4.705564
v 0.126034 3.270612 4.673634
v 0.178239 3.370323 4.596546
v 0.126034 3.470033 4.519458
v -0.000000 3.511334 4.487528
v -0.126034 3.470033 4.519458
v -0.178239 3.370323 4.596546
v -0.126034 3.270612 4.673634
vt 0.807060 0.129253
vt 0.960667 0.159975
vt 0.907577 0.254902
vt 0.798031 0.187912
vt 0.579559 0.193964
vt 0.542522 0.052433
vt 0.736066 0.016587
vt 0.725641 0.155403
vt 0.497487 0.195840
vt 0.584679 0.277747
vt 0.748796 0.293080
vt 0.793467 0.036609
vt 0.978248 0.061228
vt 0.490881 0.087149
vt 0.807060 0.129253
vt 0.960667 0.159975
vt 0.907577 0.254902
vt 0.798031 0.187912
vt 0.579559 0.193964
vt 0.542522 0.052433
vt 0.736066 0.016587
vt 0.725641 0.155403
vt 0.497487 0.195840
vt 0.584679 0.277747
vt 0.748796 0.293080
vt 0.793467 0.036609
vt 0.978248 0.061228
vt 0.490881 0.087149
vt 0.347314 0.383511
vt 0.418249 0.419679
vt 0.423144 0.489618
vt 0.343613 0.428259
vt 0.494193 0.445955
vt 0.503886 0.507626
vt 0.606595 0.509658
vt 0.325806 0.757669
vt 0.448970 0.750049
vt 0.454585 0.881479
vt 0.302299 0.869171
vt 0.543470 0.709435
vt 0.564596 0.863794
vt 0.573972 0.394148
vt 0.488741 0.382585
vt 0.495813 0.333903
vt 0.553029 0.337546
vt 0.509914 0.283406
vt 0.479906 0.293333
vt 0.446172 0.231277
vt 0.530389 0.258852
vt 0.637753 0.325133
vt 0.699980 0.425420
vt 0.721700 0.521629
vt 0.685701 0.831174
vt 0.638291 0.672811
vt 0.738829 0.650532
vt 0.796138 0.802537
vt 0.170476 0.667741
vt 0.125277 0.752798
vt 0.107920 0.471769
vt 0.025004 0.476560
vt 0.070572 0.321963
vt 0.272036 0.359868
vt 0.166127 0.429274
vt 0.333185 0.485101
vt 0.338323 0.614984
vt 0.223737 0.568539
vt 0.258942 0.476089
vt 0.437216 0.605075
vt 0.524278 0.582532
vt 0.125521 0.553589
vt 0.020426 0.674380
vt 0.208229 0.464633
vt 0.784947 0.528150
vt 0.808253 0.584079
vt 0.864177 0.665303
vt 0.849697 0.412823
vt 0.876403 0.439839
vt 0.924159 0.431995
vt 0.944571 0.305263
vt 0.436401 0.993307
vt 0.219710 0.959527
vt 0.591257 0.977524
vt 0.753109 0.944108
vt 0.869176 0.908177
vt 0.059110 0.845771
vt 0.986782 0.457285
vt 0.957302 0.691041
vt 0.343670 0.340935
vt 0.412850 0.352801
vt 0.041936 0.063323
vt 0.041861 0.073720
vt 0.012825 0.111150
vt 0.041800 0.085586
vt 0.041761 0.099065
vt 0.041747 0.113541
vt 0.041761 0.127998
vt 0.041800 0.141437
vt 0.041859 0.153256
vt 0.041935 0.163645
vt 0.468449 0.151972
vt 0.468329 0.172343
vt 0.468135 0.190990
vt 0.467879 0.207295
vt 0.467868 0.054258
vt 0.468127 0.070465
vt 0.468323 0.089057
vt 0.468446 0.109405
vt 0.468489 0.130685
vn -0.315923 0.214283 0.924270
vn 0.346930 -0.891880 0.290154
vn 0.796154 -0.443645 0.411483
vn -0.090907 0.354692 0.930553
vn 0.655467 -0.067715 -0.752182
vn 0.444988 -0.112644 -0.888424
vn -0.065269 0.970798 -0.230849
vn -0.230978 0.967686 -0.101162
vn 0.624263 0.779818 0.046683
vn -0.478810 0.143375 0.866132
vn 0.083561 -0.988567 0.125511
vn 0.315923 0.214283 0.924270
vn 0.090907 0.354692 0.930553
vn -0.796154 -0.443645 0.411483
vn -0.346930 -0.891880 0.290154
vn -0.655467 -0.067715 -0.752182
vn 0.230978 0.967686 -0.101162
vn 0.065269 0.970798 -0.230849
vn -0.444989 -0.112644 -0.888424
vn -0.624263 0.779818 0.046683
vn 0.478810 0.143374 0.866132
vn -0.083561 -0.988567 0.125511
vn -0.506485 0.091509 0.857379
vn -0.214296 0.131160 0.967923
vn -0.276775 0.375025 0.884733
vn -0.542137 0.530229 0.651878
vn 0.088289 0.180650 0.979577
vn -0.053236 0.408266 0.911309
vn 0.242352 0.416231 0.876366
vn -0.459869 0.674816 0.577186
vn -0.075033 0.791802 0.606152
vn 0.016745 0.995205 0.096366
vn -0.373317 0.927434 0.022375
vn 0.090934 0.820316 0.564635
vn 0.052776 0.993893 0.096906
vn 0.270517 0.130557 0.953821
vn 0.067589 0.022625 0.997457
vn -0.230474 0.255683 0.938886
vn 0.214931 -0.090131 0.972461
vn 0.044969 -0.150126 0.987644
vn -0.325560 0.452546 0.830188
vn -0.066759 -0.118358 0.990724
vn 0.391861 -0.673915 0.626325
vn 0.596224 -0.411181 0.689526
vn 0.634893 -0.082020 0.768234
vn 0.619245 0.213403 0.755642
vn 0.188451 0.981850 0.021351
vn 0.279399 0.773545 0.568827
vn 0.696886 0.506582 0.507666
vn 0.666054 0.740816 -0.086969
vn -0.844779 0.420031 0.331547
vn -0.793439 0.548527 -0.263766
vn -0.962370 -0.207543 -0.175416
vn -0.781860 0.206658 -0.588207
vn -0.896628 -0.293473 -0.331561
vn -0.620075 0.082875 0.780153
vn -0.764637 -0.556262 0.325428
vn -0.478089 0.117431 0.870426
vn -0.489151 0.322482 0.810393
vn -0.743619 0.161295 0.648857
vn -0.700166 -0.009737 0.713914
vn -0.176217 0.445369 0.877835
vn 0.074554 0.519126 0.851440
vn -0.982215 0.026253 0.185917
vn -0.859063 0.179527 -0.479355
vn -0.810597 -0.185733 0.555369
vn 0.591450 -0.065057 0.803713
vn 0.845466 0.143481 0.514393
vn 0.942541 0.315555 -0.109731
vn 0.427345 -0.298000 0.853565
vn 0.751406 -0.247490 0.611668
vn 0.976047 -0.196885 -0.092566
vn 0.791779 -0.537136 0.290812
vn 0.030015 0.963884 -0.264625
vn -0.261917 0.890128 -0.372923
vn 0.022887 0.974001 -0.225386
vn 0.112663 0.941906 -0.316417
vn 0.559198 0.728611 -0.395503
vn -0.634616 0.547945 -0.544994
vn 0.878853 -0.220191 -0.423242
vn 0.894315 0.288658 -0.341872
vn -0.348171 -0.375437 0.858967
vn -0.033581 -0.296806 0.954347
vn 0.634083 0.772346 -0.037690
vn 0.000000 0.980134 -0.198334
vn 0.000000 0.611641 0.791136
vn -0.634083 0.772346 -0.037692
vn -0.896730 0.270700 0.350140
vn -0.634082 -0.230948 0.737972
vn 0.000000 -0.438736 0.898616
vn 0.634083 -0.230948 0.737971
vn 0.896730 0.270700 0.350139
vn -0.000000 -0.624086 0.781356
vn 0.687057 -0.398937 0.607290
vn 0.971645 0.144618 0.187059
vn 0.687057 0.688174 -0.233173
vn -0.000000 0.913322 -0.407238
vn -0.687057 0.688174 -0.233173
vn -0.971645 0.144618 0.187059
vn -0.687057 -0.398937 0.607290
s 1
f 10/1/1 11/2/2 6/3/3 7/4/4
f 9/5/5 5/6/6 4/7/7 8/8/8
f 11/9/2 9/5/5 6/10/3
f 8/8/8 10/1/1 7/4/4
f 7/4/4 6/3/3 3/11/9
f 3/11/9 8/8/8 7/4/4
f 3/11/9 9/5/5 8/8/8
f 6/10/3 9/5/5 3/11/9
f 4/7/7 1/12/10 10/1/1 8/8/8
f 1/12/10 2/13/11 11/2/2 10/1/1
f 2/14/11 5/6/6 9/5/5 11/9/2
s 3
f 21/15/12 18/18/13 17/17/14 22/16/15
f 20/19/16 19/22/17 15/21/18 16/20/19
f 22/23/15 17/24/14 20/19/16
f 19/22/17 18/18/13 21/15/12
f 18/18/13 14/25/20 17/17/14
f 14/25/20 18/18/13 19/22/17
f 14/25/20 19/22/17 20/19/16
f 17/24/14 14/25/20 20/19/16
f 15/21/18 19/22/17 21/15/12 12/26/21
f 12/26/21 21/15/12 22/16/15 13/27/22
f 13/28/22 22/23/15 20/19/16 16/20/19
s 5
f 81/29/23 82/30/24 28/31/25 27/32/26
f 82/30/24 83/33/27 29/34/28 28/31/25
f 83/33/27 43/35/29 29/34/28
f 75/36/30 77/37/31 32/38/32 31/39/33
f 77/37/31 79/40/34 33/41/35 32/38/32
f 42/42/36 25/43/37 38/44/38 41/45/39
f 40/46/40 36/47/41 35/48/42
f 41/45/39 38/44/38 36/47/41 40/46/40
f 37/49/43 40/46/40 35/48/42
f 39/50/44 41/45/39 40/46/40 37/49/43
f 26/51/45 42/42/36 41/45/39 39/50/44
f 43/35/29 42/42/36 26/51/45 30/52/46
f 44/53/47 56/54/48 57/55/49 34/56/50
f 74/57/51 75/36/30 31/39/33 47/58/52
f 53/59/53 52/60/54 48/61/55
f 81/29/23 27/32/26 45/62/56
f 51/63/57 53/59/53 48/61/55
f 50/64/58 76/65/59 73/66/60 55/67/61
f 50/64/58 28/31/25 78/68/62 76/65/59
f 28/31/25 29/34/28 80/69/63 78/68/62
f 54/70/64 49/71/65 52/60/54 53/59/53
f 46/72/66 54/70/64 53/59/53 51/63/57
f 79/40/34 43/35/29 56/54/48
f 57/55/49 56/54/48 43/35/29 30/52/46
f 57/55/49 30/52/46 58/73/67 61/74/68
f 59/75/69 34/56/50 57/55/49 61/74/68
f 61/74/68 58/73/67 62/76/70 63/77/71
f 59/75/69 61/74/68 63/77/71 64/78/72
f 63/77/71 62/76/70 60/79/73
f 64/78/72 63/77/71 60/79/73
f 31/39/33 32/38/32 66/80/74 65/81/75
f 32/38/32 33/41/35 67/82/76 66/80/74
f 33/41/35 44/53/47 68/83/77 67/82/76
f 44/53/47 34/56/50 69/84/78 68/83/77
f 47/58/52 31/39/33 65/81/75 70/85/79
f 49/71/65 47/58/52 70/85/79
f 64/78/72 60/79/73 71/86/80
f 59/75/69 64/78/72 71/86/80 72/87/81
f 34/56/50 59/75/69 72/87/81 69/84/78
f 73/66/60 54/70/64 46/72/66 55/67/61
f 54/70/64 74/57/51 47/58/52 49/71/65
f 79/40/34 56/54/48 44/53/47 33/41/35
f 75/36/30 74/57/51 73/66/60 76/65/59
f 77/37/31 75/36/30 76/65/59 78/68/62
f 79/40/34 77/37/31 78/68/62 80/69/63
f 54/70/64 73/66/60 74/57/51
f 23/88/82 81/29/23 45/62/56
f 23/88/82 24/89/83 82/30/24 81/29/23
f 24/89/83 25/43/37 83/33/27 82/30/24
f 25/43/37 43/35/29 83/33/27
f 25/43/37 42/42/36 43/35/29
f 43/35/29 80/69/63 29/34/28
f 80/69/63 43/35/29 79/40/34
s 11
f 96/90/84 97/91/85 92/92/86
f 97/91/85 98/93/87 92/92/86
f 98/93/87 99/94/88 92/92/86
f 99/94/88 100/95/89 92/92/86
f 100/95/89 93/96/90 92/92/86
f 93/96/90 94/97/91 92/92/86
f 94/97/91 95/98/92 92/92/86
f 95/98/92 96/99/84 92/92/86
f 89/100/93 90/101/94 94/97/91 93/96/90
f 90/101/94 91/102/95 95/98/92 94/97/91
f 91/102/95 84/103/96 96/99/84 95/98/92
f 84/104/96 85/105/97 97/91/85 96/90/84
f 85/105/97 86/106/98 98/93/87 97/91/85
f 86/106/98 87/107/99 99/94/88 98/93/87
f 87/107/99 88/108/100 100/95/89 99/94/88
f 88/108/100 89/100/93 93/96/90 100/95/89
