# This file uses centimeters as units for non-parametric coordinates.

v -0.177720 2.968122 2.688146
v 0.177720 2.968122 2.688146
v -0.177720 3.951671 2.488170
v 0.177720 3.951671 2.488170
v -0.177720 4.025472 1.907614
v 0.177720 4.025472 1.907614
v -0.177720 3.131680 1.401518
v 0.177720 3.131680 1.401518
v 0.248473 4.164825 2.213481
v -0.248473 4.164825 2.213481
v -0.374793 3.053531 2.016278
v 0.374793 3.053531 2.016278
v 0.009149 4.022458 2.571471
v 0.012740 4.304711 2.233106
v 0.009149 4.114132 1.850314
v 0.009149 3.011997 1.222973
v 0.009149 2.808829 2.821200
v -0.177720 2.910482 1.230563
v 0.177720 2.910482 1.230563
v -0.177720 3.833040 0.580293
v 0.177720 3.833040 0.580293
v -0.177720 3.695350 0.014939
v 0.177720 3.695350 0.014939
v -0.177720 2.605333 -0.022374
v 0.177720 2.605333 -0.022374
v 0.248473 3.948334 0.228056
v -0.248473 3.948334 0.228056
v -0.374793 2.751135 0.576288
v 0.374793 2.751135 0.576288
v 0.009149 3.935180 0.622723
v 0.012740 4.097130 0.179474
v 0.009149 3.764143 -0.079551
v 0.009149 2.418846 -0.128551
v 0.009149 2.797896 1.427827
v -0.145899 2.490422 -0.197866
v 0.145899 2.490422 -0.197866
v -0.145899 3.175266 -0.928142
v 0.145899 3.175266 -0.928142
v -0.145899 2.935837 -1.345356
v 0.145899 2.935837 -1.345356
v -0.145899 1.959800 -1.122494
v 0.145899 1.959800 -1.122494
v 0.203984 3.204720 -1.234662
v -0.203984 3.204720 -1.234662
v -0.307687 2.213335 -0.680700
v 0.307687 2.213335 -0.680700
v 0.007511 3.274790 -0.918097
v 0.010459 3.326838 -1.307724
v 0.007511 2.977376 -1.436353
v 0.007511 1.772141 -1.163640
v 0.007511 2.431271 -0.015082
vt 0.328097 0.079306
vt 0.314716 0.078653
vt 0.346383 0.131493
vt 0.353552 0.123664
vt 0.384688 0.156113
vt 0.384775 0.139058
vt 0.412342 0.121460
vt 0.419740 0.131464
vt 0.451407 0.074321
vt 0.438137 0.074977
vt 0.327991 0.079307
vt 0.385396 0.063229
vt 0.384288 0.138785
vt 0.353523 0.122735
vt 0.385617 0.063227
vt 0.438032 0.074978
vt 0.412530 0.121184
vt 0.328097 0.079306
vt 0.314716 0.078653
vt 0.346383 0.131493
vt 0.353552 0.123664
vt 0.384688 0.156113
vt 0.384775 0.139058
vt 0.412342 0.121460
vt 0.419740 0.131464
vt 0.451407 0.074321
vt 0.438137 0.074977
vt 0.327991 0.079307
vt 0.385396 0.063229
vt 0.384288 0.138785
vt 0.353523 0.122735
vt 0.385617 0.063227
vt 0.438032 0.074978
vt 0.412530 0.121184
vt 0.328097 0.079306
vt 0.314716 0.078653
vt 0.346383 0.131493
vt 0.353552 0.123664
vt 0.384688 0.156113
vt 0.384775 0.139058
vt 0.412342 0.121460
vt 0.419740 0.131464
vt 0.451407 0.074321
vt 0.438137 0.074977
vt 0.327991 0.079307
vt 0.385396 0.063229
vt 0.384288 0.138785
vt 0.353523 0.122735
vt 0.385617 0.063227
vt 0.438032 0.074978
vt 0.412530 0.121184
vn -0.767910 0.127881 0.627663
vn 0.021690 0.200470 0.979460
vn 0.022341 0.500040 0.865714
vn -0.688093 0.333709 0.644334
vn 0.024998 0.993185 0.113838
vn -0.855593 0.514985 0.052449
vn -0.670236 0.507927 -0.541104
vn 0.021668 0.715451 -0.698327
vn 0.021417 0.493694 -0.869372
vn -0.753701 0.323536 -0.572066
vn 0.781623 0.124516 0.611197
vn 0.993503 0.113792 0.001659
vn 0.866751 0.496210 0.050185
vn 0.708553 0.321543 0.628142
vn -0.993503 0.113792 0.001659
vn 0.767603 0.315499 -0.557894
vn 0.690856 0.492382 -0.529412
vn -0.762724 0.372774 0.528482
vn 0.021415 0.576913 0.816525
vn 0.021961 0.784377 0.619896
vn -0.682631 0.554182 0.476337
vn 0.026628 0.961321 -0.274139
vn -0.872159 0.468874 -0.139630
vn -0.688577 0.203107 -0.696139
vn 0.022505 0.322726 -0.946225
vn 0.021818 0.035411 -0.999135
vn -0.761572 0.021866 -0.647711
vn 0.776398 0.363266 0.515018
vn 0.994761 0.095208 -0.037228
vn 0.882811 0.450148 -0.134210
vn 0.703170 0.537062 0.465957
vn -0.994761 0.095208 -0.037228
vn 0.775531 0.021282 -0.630951
vn 0.709233 0.193755 -0.677826
vn -0.770349 0.465251 0.436008
vn 0.021820 0.729999 0.683100
vn 0.022659 0.894975 0.445540
vn -0.698925 0.626693 0.344615
vn 0.028309 0.855086 -0.517713
vn -0.887184 0.391384 -0.244384
vn -0.689892 0.002801 -0.723907
vn 0.022419 0.044580 -0.998754
vn 0.021820 -0.221497 -0.974917
vn -0.761598 -0.144525 -0.631729
vn 0.784079 0.452870 0.424417
vn 0.995672 0.073278 -0.057160
vn 0.897252 0.374322 -0.234139
vn 0.719494 0.606794 0.337831
vn -0.995672 0.073278 -0.057160
vn 0.775557 -0.140801 -0.615376
vn 0.710619 -0.001021 -0.703576
s 1
f 1/1/1 17/2/2 13/3/3 3/4/4
f 3/4/4 13/3/3 14/5/5 10/6/6
f 5/7/7 15/8/8 16/9/9 7/10/10
f 2/11/11 12/12/12 9/13/13 4/14/14
f 11/15/15 1/1/1 3/4/4 10/6/6
f 10/6/6 14/5/5 15/8/8 5/7/7
f 7/10/10 11/15/15 10/6/6 5/7/7
f 9/13/13 12/12/12 8/16/16 6/17/17
f 13/3/3 4/14/14 9/13/13 14/5/5
f 15/8/8 14/5/5 9/13/13 6/17/17
f 16/9/9 15/8/8 6/17/17 8/16/16
f 13/3/3 17/2/2 2/11/11 4/14/14
s 3
f 18/18/18 34/19/19 30/20/20 20/21/21
f 20/21/21 30/20/20 31/22/22 27/23/23
f 22/24/24 32/25/25 33/26/26 24/27/27
f 19/28/28 29/29/29 26/30/30 21/31/31
f 28/32/32 18/18/18 20/21/21 27/23/23
f 27/23/23 31/22/22 32/25/25 22/24/24
f 24/27/27 28/32/32 27/23/23 22/24/24
f 26/30/30 29/29/29 25/33/33 23/34/34
f 30/20/20 21/31/31 26/30/30 31/22/22
f 32/25/25 31/22/22 26/30/30 23/34/34
f 33/26/26 32/25/25 23/34/34 25/33/33
f 30/20/20 34/19/19 19/28/28 21/31/31
s 5
f 35/35/35 51/36/36 47/37/37 37/38/38
f 37/38/38 47/37/37 48/39/39 44/40/40
f 39/41/41 49/42/42 50/43/43 41/44/44
f 36/45/45 46/46/46 43/47/47 38/48/48
f 45/49/49 35/35/35 37/38/38 44/40/40
f 44/40/40 48/39/39 49/42/42 39/41/41
f 41/44/44 45/49/49 44/40/40 39/41/41
f 43/47/47 46/46/46 42/50/50 40/51/51
f 47/37/37 38/48/48 43/47/47 48/39/39
f 49/42/42 48/39/39 43/47/47 40/51/51
f 50/43/43 49/42/42 40/51/51 42/50/50
f 47/37/37 51/36/36 36/45/45 38/48/48
