# This file uses centimeters as units for non-parametric coordinates.

v 0.000000 1.433106 4.438810
v 0.707107 2.140213 4.438810
v -0.707107 2.140213 4.438810
v 0.000000 2.847320 4.438810
v -0.707107 2.140213 3.754165
v 0.000000 2.847320 3.754165
v 0.000000 1.433106 3.754165
v 0.707107 2.140213 3.754165
v 1.344609 1.705509 4.352972
v 0.858747 1.966107 4.352972
v 0.858747 1.966107 3.974006
v 1.344609 1.705509 3.974006
v 0.000000 1.188359 4.352972
v 0.000000 2.188359 4.352972
v 0.000000 2.188359 3.974006
v 0.000000 1.188359 3.974006
v 2.112022 4.341458 3.932917
v 2.112022 4.341458 4.311883
v 1.626160 4.602056 3.932917
v 1.626160 4.602056 4.311883
v 1.299339 3.096879 4.352972
v 0.858747 3.357477 4.352972
v 0.858747 3.357477 3.974006
v 1.299339 3.096879 3.974006
v 1.393240 3.391494 4.346056
v 1.387935 3.396870 3.966396
v 1.037258 1.468365 4.352972
v 1.024313 1.463386 3.974006
v -1.344609 1.705509 4.352972
v -0.858747 1.966107 4.352972
v -0.858747 1.966107 3.974006
v -1.344609 1.705509 3.974006
v -2.112022 4.341458 3.932917
v -2.112022 4.341458 4.311883
v -1.626160 4.602056 3.932917
v -1.626160 4.602056 4.311883
v -1.299339 3.096879 4.352972
v -0.858747 3.357477 4.352972
v -0.858747 3.357477 3.974006
v -1.299339 3.096879 3.974006
v -1.393240 3.391494 4.346056
v -1.387935 3.396870 3.966396
v -1.037258 1.468365 4.352972
v -1.024313 1.463386 3.974006
v 2.786318 1.214278 -0.575674
v 1.608681 1.647675 -1.741877
v 0.000000 1.929866 -2.126182
v 0.000000 1.131352 4.308542
v 1.881711 1.131352 3.877497
v 2.786318 1.131352 2.699862
v 3.217361 1.098336 1.075669
v 2.691375 2.028462 -0.405946
v 1.553867 2.396092 -1.423185
v 0.000000 2.633211 -1.747492
v 0.000000 1.964067 4.198914
v 1.553867 1.964067 3.782557
v 2.691375 1.964067 2.645047
v 3.107733 1.930635 1.101980
v 2.413022 2.772546 -0.159421
v 1.393159 3.025556 -1.004921
v 0.000000 3.187198 -1.275270
v 0.000000 2.740034 3.877497
v 1.393159 2.740034 3.504203
v 2.413022 2.738122 2.485219
v 2.786318 2.706214 1.126498
v 1.970224 3.405666 0.134784
v 1.137509 3.540926 -0.532813
v 0.000000 3.626609 -0.753270
v 0.000000 3.406371 3.366199
v 1.137509 3.406371 3.061404
v 1.970224 3.399994 2.233899
v 2.275019 3.372219 1.147553
v 1.393159 3.892507 0.460026
v 0.804340 3.941483 -0.016545
v 0.000000 3.972445 -0.180600
v 0.000000 3.917670 2.699862
v 0.804340 3.915757 2.486139
v 1.393159 3.902961 1.913649
v 1.608681 3.883262 1.163708
v 0.721152 4.202955 0.809348
v 0.416357 4.209682 0.552557
v 0.000000 4.214325 0.460918
v 0.000000 4.225145 1.943180
v 0.416357 4.222047 1.837329
v 0.721152 4.213556 1.552354
v 0.832715 4.204517 1.173864
v 0.000000 4.314092 1.177328
v 3.412384 -0.194460 -1.001459
v 1.886062 0.381956 -2.609434
v 0.000000 0.820552 -3.051707
v 2.589413 -0.649602 3.416360
v 4.022335 -0.453450 1.213843
v 3.482704 -0.551526 2.498969
v 2.638026 1.162505 2.629608
v 2.385099 -0.680754 3.141820
v -2.786318 1.214278 -0.575674
v -1.608681 1.647675 -1.741877
v -1.881711 1.131352 3.877497
v -2.786318 1.131352 2.699862
v -3.217361 1.098336 1.075669
v -2.691375 2.028462 -0.405946
v -1.553867 2.396092 -1.423185
v -1.553867 1.964067 3.782557
v -2.691375 1.964067 2.645047
v -3.107733 1.930635 1.101980
v -2.413022 2.772546 -0.159421
v -1.393159 3.025556 -1.004921
v -1.393159 2.740034 3.504203
v -2.413022 2.738122 2.485219
v -2.786318 2.706214 1.126498
v -1.970224 3.405666 0.134784
v -1.137509 3.540926 -0.532813
v -1.137509 3.406371 3.061404
v -1.970224 3.399994 2.233899
v -2.275019 3.372219 1.147553
v -1.393159 3.892507 0.460026
v -0.804340 3.941483 -0.016545
v -0.804340 3.915757 2.486139
v -1.393159 3.902961 1.913649
v -1.608681 3.883262 1.163708
v -0.721152 4.202955 0.809348
v -0.416357 4.209682 0.552557
v -0.416357 4.222047 1.837329
v -0.721152 4.213556 1.552354
v -0.832715 4.204517 1.173864
v -3.412384 -0.194460 -1.001459
v -1.886062 0.381956 -2.609434
v -2.589413 -0.649602 3.416360
v -4.022335 -0.453450 1.213843
v -3.482704 -0.551526 2.498969
v -2.638026 1.162505 2.629608
v -2.385099 -0.680754 3.141820
vt 0.168339 0.698394
vt 0.291270 0.821233
vt 0.168339 0.944746
vt 0.045409 0.821907
vt 0.170375 0.979138
vt 0.013829 0.822868
vt 0.170156 0.665960
vt 0.326702 0.822230
vt 0.355709 0.947995
vt 0.345648 0.979614
vt 0.312477 0.870382
vt 0.343821 0.897525
vt 0.840797 0.881613
vt 0.800556 0.911497
vt 0.766500 0.827974
vt 0.757186 0.715267
vt 0.790541 0.718466
vt 0.749207 0.778025
vt 0.840797 0.881613
vt 0.766500 0.827974
vt 0.800556 0.911497
vt 0.886925 0.922179
vt 0.808458 0.969992
vt 0.572857 0.952882
vt 0.576929 0.891465
vt 0.543229 0.813981
vt 0.576929 0.891465
vt 0.543229 0.813981
vt 0.531748 0.757171
vt 0.520445 0.898784
vt 0.520445 0.898784
vt 0.343821 0.897525
vt 0.355709 0.947995
vt 0.529552 0.956716
vt 0.920518 0.744786
vt 0.975974 0.768889
vt 0.920518 0.744786
vt 0.790541 0.718466
vt 0.355709 0.947995
vt 0.343821 0.897525
vt 0.312477 0.870382
vt 0.345648 0.979614
vt 0.840797 0.881613
vt 0.766500 0.827974
vt 0.800556 0.911497
vt 0.757186 0.715267
vt 0.749207 0.778025
vt 0.790541 0.718466
vt 0.840797 0.881613
vt 0.800556 0.911497
vt 0.766500 0.827974
vt 0.808458 0.969992
vt 0.886925 0.922179
vt 0.576929 0.891465
vt 0.572857 0.952882
vt 0.576929 0.891465
vt 0.543229 0.813981
vt 0.531748 0.757171
vt 0.543229 0.813981
vt 0.520445 0.898784
vt 0.520445 0.898784
vt 0.355709 0.947995
vt 0.343821 0.897525
vt 0.529552 0.956716
vt 0.920518 0.744786
vt 0.975974 0.768889
vt 0.920518 0.744786
vt 0.790541 0.718466
vt 0.740746 0.249453
vt 0.860432 0.249453
vt 0.855495 0.363308
vt 0.724118 0.363308
vt 0.971107 0.249453
vt 0.952391 0.363308
vt 0.016546 0.249453
vt 0.097554 0.249453
vt 0.107639 0.363308
vt 0.032147 0.363308
vt 0.274599 0.249453
vt 0.281407 0.363308
vt 0.510245 0.249453
vt 0.505355 0.363308
vt 0.805989 0.490418
vt 0.677607 0.487770
vt 0.904766 0.486831
vt 0.145572 0.482643
vt 0.077889 0.481756
vt 0.301244 0.482984
vt 0.498507 0.478609
vt 0.734631 0.584269
vt 0.631111 0.577838
vt 0.837738 0.583449
vt 0.205916 0.577538
vt 0.150652 0.576813
vt 0.332382 0.577129
vt 0.490167 0.573312
vt 0.640462 0.653532
vt 0.578794 0.646948
vt 0.729187 0.647581
vt 0.284301 0.649980
vt 0.245480 0.649741
vt 0.371927 0.648509
vt 0.480905 0.645803
vt 0.555418 0.691577
vt 0.522059 0.690827
vt 0.564108 0.691965
vt 0.372580 0.693403
vt 0.353165 0.693579
vt 0.416320 0.692375
vt 0.471350 0.691140
vt 0.462154 0.706235
vt 0.750264 0.215254
vt 0.517523 0.215254
vt 0.517203 0.020940
vt 0.746598 0.020940
vt 0.976942 0.215254
vt 0.976942 0.020940
vt 0.293730 0.215254
vt 0.071835 0.215254
vt 0.071835 0.020940
vt 0.150775 0.020940
vt 0.294522 0.020940
vt 0.033830 0.215254
vt 0.033830 0.020940
vt 0.740746 0.249453
vt 0.860432 0.249453
vt 0.855495 0.363308
vt 0.724118 0.363308
vt 0.971107 0.249453
vt 0.952391 0.363308
vt 0.016546 0.249453
vt 0.097554 0.249453
vt 0.107639 0.363308
vt 0.032147 0.363308
vt 0.274599 0.249453
vt 0.281407 0.363308
vt 0.510245 0.249453
vt 0.505355 0.363308
vt 0.805989 0.490418
vt 0.677607 0.487770
vt 0.904766 0.486831
vt 0.145572 0.482643
vt 0.077889 0.481756
vt 0.301244 0.482984
vt 0.498507 0.478609
vt 0.734631 0.584269
vt 0.631111 0.577838
vt 0.837738 0.583449
vt 0.205916 0.577538
vt 0.150652 0.576813
vt 0.332382 0.577129
vt 0.490167 0.573312
vt 0.640462 0.653532
vt 0.578794 0.646948
vt 0.729187 0.647581
vt 0.284301 0.649980
vt 0.245480 0.649741
vt 0.371927 0.648509
vt 0.480905 0.645803
vt 0.555418 0.691577
vt 0.522059 0.690827
vt 0.564108 0.691965
vt 0.372580 0.693403
vt 0.353165 0.693579
vt 0.416320 0.692375
vt 0.471350 0.691140
vt 0.462154 0.706235
vt 0.750264 0.215254
vt 0.517523 0.215254
vt 0.517203 0.020940
vt 0.746598 0.020940
vt 0.976942 0.215254
vt 0.976942 0.020940
vt 0.293730 0.215254
vt 0.071835 0.215254
vt 0.071835 0.020940
vt 0.150775 0.020940
vt 0.294522 0.020940
vt 0.033830 0.215254
vt 0.033830 0.020940
vn 0.000000 -0.816497 0.577350
vn 0.816497 0.000000 0.577350
vn 0.000000 0.816497 0.577350
vn -0.816497 0.000000 0.577350
vn 0.000000 1.000000 0.000000
vn -1.000000 0.000000 0.000000
vn 0.000000 -1.000000 0.000000
vn 1.000000 0.000000 0.000000
vn 0.777876 0.182834 0.601233
vn 0.770001 0.153362 -0.619337
vn -0.223839 0.789488 -0.571494
vn -0.205143 0.802530 0.560234
vn 0.309641 -0.628813 0.713244
vn 0.601127 -0.285250 0.746511
vn -0.231296 0.298779 0.925869
vn 0.000000 0.695555 -0.718473
vn -0.000000 0.695555 0.718473
vn -0.231296 0.298779 -0.925869
vn 0.309130 -0.627775 -0.714379
vn 0.599402 -0.284431 -0.748209
vn 0.691693 -0.100647 -0.715144
vn 0.700220 -0.085907 0.708739
vn -0.525709 0.133899 -0.840060
vn -0.513494 0.160318 0.842984
vn 0.635507 -0.305728 0.708986
vn 0.612157 -0.335781 -0.715902
vn -0.000000 -0.693947 0.720026
vn 0.000000 -0.695315 -0.718705
vn -0.777876 0.182834 0.601233
vn 0.205143 0.802530 0.560234
vn 0.223839 0.789488 -0.571494
vn -0.770002 0.153362 -0.619336
vn -0.309641 -0.628813 0.713244
vn 0.231296 0.298779 0.925869
vn -0.601127 -0.285250 0.746511
vn 0.231296 0.298779 -0.925869
vn -0.309130 -0.627775 -0.714379
vn -0.599402 -0.284431 -0.748209
vn -0.700220 -0.085907 0.708739
vn -0.691693 -0.100647 -0.715144
vn 0.525709 0.133899 -0.840060
vn 0.513495 0.160318 0.842984
vn -0.635507 -0.305728 0.708987
vn -0.612157 -0.335780 -0.715902
vn 0.840406 0.348848 -0.414756
vn 0.514702 0.463227 -0.721459
vn 0.481146 0.465013 -0.743143
vn 0.830162 0.337474 -0.443781
vn 0.000000 0.536196 -0.844094
vn 0.000000 0.535116 -0.844778
vn 0.000000 0.168924 0.985629
vn 0.504298 0.212723 0.836918
vn 0.484903 0.299592 0.821653
vn 0.000000 0.277471 0.960734
vn 0.639500 0.333352 0.692760
vn 0.839066 0.285882 0.462860
vn 0.941329 0.309460 0.134660
vn 0.963384 0.268099 0.003875
vn 0.418868 0.641495 -0.642678
vn 0.733986 0.556230 -0.389710
vn 0.000000 0.687152 -0.726514
vn 0.432995 0.500498 0.749678
vn 0.000000 0.500436 0.865774
vn 0.751654 0.499808 0.430358
vn 0.861383 0.507950 0.002470
vn 0.338447 0.777803 -0.529601
vn 0.595472 0.736395 -0.321149
vn 0.000000 0.799544 -0.600608
vn 0.353901 0.707866 0.611294
vn 0.000000 0.707628 0.706586
vn 0.614026 0.708191 0.348479
vn 0.701697 0.712474 -0.001809
vn 0.242485 0.887446 -0.391971
vn 0.422687 0.875025 -0.235939
vn 0.000000 0.893997 -0.448072
vn 0.250614 0.868290 0.428095
vn -0.000000 0.868074 0.496434
vn 0.434026 0.868264 0.240290
vn 0.495513 0.868566 -0.007698
vn 0.131718 0.967354 -0.216511
vn 0.223071 0.966128 -0.129753
vn 0.000000 0.968128 -0.250457
vn 0.130890 0.968638 0.211207
vn -0.000000 0.968808 0.247814
vn 0.225124 0.967755 0.112999
vn 0.256849 0.966367 -0.012777
vn -0.000000 0.999926 -0.012169
vn 0.805146 0.472345 -0.358652
vn 0.518641 0.558342 -0.647508
vn -0.000000 0.625604 -0.780141
vn 0.139155 0.470657 0.871274
vn 0.829800 0.375918 0.412452
vn 0.879150 0.467056 0.094626
vn -0.664087 0.312672 0.679135
vn -0.664087 0.312672 0.679135
vn -0.840406 0.348848 -0.414756
vn -0.830162 0.337474 -0.443781
vn -0.481146 0.465013 -0.743143
vn -0.514702 0.463227 -0.721459
vn -0.484903 0.299592 0.821653
vn -0.504298 0.212723 0.836918
vn -0.839066 0.285882 0.462860
vn -0.639500 0.333352 0.692760
vn -0.963384 0.268099 0.003875
vn -0.941329 0.309460 0.134660
vn -0.733986 0.556230 -0.389710
vn -0.418868 0.641495 -0.642678
vn -0.432995 0.500498 0.749679
vn -0.751654 0.499808 0.430358
vn -0.861383 0.507950 0.002470
vn -0.595472 0.736395 -0.321149
vn -0.338447 0.777803 -0.529601
vn -0.353901 0.707866 0.611294
vn -0.614026 0.708191 0.348479
vn -0.701697 0.712474 -0.001809
vn -0.422687 0.875025 -0.235939
vn -0.242485 0.887446 -0.391971
vn -0.250614 0.868290 0.428095
vn -0.434026 0.868264 0.240290
vn -0.495513 0.868566 -0.007698
vn -0.223071 0.966128 -0.129754
vn -0.131718 0.967354 -0.216511
vn -0.130890 0.968638 0.211207
vn -0.225124 0.967755 0.112999
vn -0.256849 0.966367 -0.012778
vn -0.518641 0.558342 -0.647507
vn -0.805146 0.472345 -0.358652
vn -0.829800 0.375918 0.412452
vn -0.139155 0.470657 0.871274
vn -0.879150 0.467056 0.094626
vn 0.664087 0.312672 0.679135
vn 0.664087 0.312672 0.679135
s 1
f 1/1/1 2/2/2 4/3/3 3/4/4
f 3/4/4 4/3/3 6/5/5 5/6/6
f 7/7/7 8/8/8 2/2/2 1/1/1
f 2/2/2 8/8/8 6/5/5 4/3/3
f 7/7/7 1/1/1 3/4/4 5/6/6
s 2
f 18/9/9 17/10/10 19/11/11 20/12/12
f 27/13/13 9/14/14 10/15/15
f 15/16/16 14/17/17 10/15/15 11/18/18
f 28/19/19 11/20/18 12/21/20
f 27/13/13 28/22/19 12/23/20 9/14/14
f 9/14/14 12/23/20 24/24/21 21/25/22
f 12/21/20 11/20/18 23/26/23 24/27/21
f 11/18/18 10/15/15 22/28/24 23/29/23
f 10/15/15 9/14/14 21/25/22 22/28/24
f 22/28/24 25/30/25 18/9/9 20/12/12
f 23/29/23 22/28/24 20/12/12 19/11/11
f 26/31/26 23/26/23 19/32/11 17/33/10
f 25/30/25 26/34/26 17/10/10 18/9/9
f 22/28/24 21/25/22 25/30/25
f 21/25/22 24/24/21 26/34/26 25/30/25
f 24/27/21 23/26/23 26/31/26
f 13/35/27 27/13/13 10/15/15 14/17/17
f 13/35/27 16/36/28 28/22/19 27/13/13
f 16/37/28 15/38/16 11/20/18 28/19/19
f 34/39/29 36/40/30 35/41/31 33/42/32
f 43/43/33 30/44/34 29/45/35
f 15/46/16 31/47/36 30/44/34 14/48/17
f 44/49/37 32/50/38 31/51/36
f 43/43/33 29/45/35 32/52/38 44/53/37
f 29/45/35 37/54/39 40/55/40 32/52/38
f 32/50/38 40/56/40 39/57/41 31/51/36
f 31/47/36 39/58/41 38/59/42 30/44/34
f 30/44/34 38/59/42 37/54/39 29/45/35
f 38/59/42 36/40/30 34/39/29 41/60/43
f 39/58/41 35/41/31 36/40/30 38/59/42
f 42/61/44 33/62/32 35/63/31 39/57/41
f 41/60/43 34/39/29 33/42/32 42/64/44
f 38/59/42 41/60/43 37/54/39
f 37/54/39 41/60/43 42/64/44 40/55/40
f 40/56/40 42/61/44 39/57/41
f 13/65/27 14/48/17 30/44/34 43/43/33
f 13/65/27 43/43/33 44/53/37 16/66/28
f 16/67/28 44/49/37 31/51/36 15/68/16
s 6
f 45/69/45 46/70/46 53/71/47 52/72/48
f 46/70/46 47/73/49 54/74/50 53/71/47
f 48/75/51 49/76/52 56/77/53 55/78/54
f 49/76/52 50/79/55 57/80/56 56/77/53
f 50/79/55 51/81/57 58/82/58 57/80/56
f 51/81/57 45/69/45 52/72/48 58/82/58
f 52/72/48 53/71/47 60/83/59 59/84/60
f 53/71/47 54/74/50 61/85/61 60/83/59
f 55/78/54 56/77/53 63/86/62 62/87/63
f 56/77/53 57/80/56 64/88/64 63/86/62
f 57/80/56 58/82/58 65/89/65 64/88/64
f 58/82/58 52/72/48 59/84/60 65/89/65
f 59/84/60 60/83/59 67/90/66 66/91/67
f 60/83/59 61/85/61 68/92/68 67/90/66
f 62/87/63 63/86/62 70/93/69 69/94/70
f 63/86/62 64/88/64 71/95/71 70/93/69
f 64/88/64 65/89/65 72/96/72 71/95/71
f 65/89/65 59/84/60 66/91/67 72/96/72
f 66/91/67 67/90/66 74/97/73 73/98/74
f 67/90/66 68/92/68 75/99/75 74/97/73
f 69/94/70 70/93/69 77/100/76 76/101/77
f 70/93/69 71/95/71 78/102/78 77/100/76
f 71/95/71 72/96/72 79/103/79 78/102/78
f 72/96/72 66/91/67 73/98/74 79/103/79
f 73/98/74 74/97/73 81/104/80 80/105/81
f 74/97/73 75/99/75 82/106/82 81/104/80
f 76/101/77 77/100/76 84/107/83 83/108/84
f 77/100/76 78/102/78 85/109/85 84/107/83
f 78/102/78 79/103/79 86/110/86 85/109/85
f 79/103/79 73/98/74 80/105/81 86/110/86
f 80/105/81 81/104/80 87/111/87
f 81/104/80 82/106/82 87/111/87
f 83/108/84 84/107/83 87/111/87
f 84/107/83 85/109/85 87/111/87
f 85/109/85 86/110/86 87/111/87
f 86/110/86 80/105/81 87/111/87
f 46/112/46 45/113/45 88/114/88 89/115/89
f 47/116/49 46/112/46 89/115/89 90/117/90
f 51/118/57 50/119/55 91/120/91 93/121/92
f 45/113/45 51/118/57 92/122/93 88/114/88
f 51/118/57 93/121/92 92/122/93
f 91/120/91 50/119/55 94/123/94 95/124/95
f 96/125/96 101/128/97 102/127/98 97/126/99
f 97/126/99 102/127/98 54/130/50 47/129/49
f 48/131/51 55/134/54 103/133/100 98/132/101
f 98/132/101 103/133/100 104/136/102 99/135/103
f 99/135/103 104/136/102 105/138/104 100/137/105
f 100/137/105 105/138/104 101/128/97 96/125/96
f 101/128/97 106/140/106 107/139/107 102/127/98
f 102/127/98 107/139/107 61/141/61 54/130/50
f 55/134/54 62/143/63 108/142/108 103/133/100
f 103/133/100 108/142/108 109/144/109 104/136/102
f 104/136/102 109/144/109 110/145/110 105/138/104
f 105/138/104 110/145/110 106/140/106 101/128/97
f 106/140/106 111/147/111 112/146/112 107/139/107
f 107/139/107 112/146/112 68/148/68 61/141/61
f 62/143/63 69/150/70 113/149/113 108/142/108
f 108/142/108 113/149/113 114/151/114 109/144/109
f 109/144/109 114/151/114 115/152/115 110/145/110
f 110/145/110 115/152/115 111/147/111 106/140/106
f 111/147/111 116/154/116 117/153/117 112/146/112
f 112/146/112 117/153/117 75/155/75 68/148/68
f 69/150/70 76/157/77 118/156/118 113/149/113
f 113/149/113 118/156/118 119/158/119 114/151/114
f 114/151/114 119/158/119 120/159/120 115/152/115
f 115/152/115 120/159/120 116/154/116 111/147/111
f 116/154/116 121/161/121 122/160/122 117/153/117
f 117/153/117 122/160/122 82/162/82 75/155/75
f 76/157/77 83/164/84 123/163/123 118/156/118
f 118/156/118 123/163/123 124/165/124 119/158/119
f 119/158/119 124/165/124 125/166/125 120/159/120
f 120/159/120 125/166/125 121/161/121 116/154/116
f 121/161/121 87/167/87 122/160/122
f 122/160/122 87/167/87 82/162/82
f 83/164/84 87/167/87 123/163/123
f 123/163/123 87/167/87 124/165/124
f 124/165/124 87/167/87 125/166/125
f 125/166/125 87/167/87 121/161/121
f 97/168/99 127/171/126 126/170/127 96/169/96
f 47/172/49 90/173/90 127/171/126 97/168/99
f 100/174/105 130/177/128 128/176/129 99/175/103
f 96/169/96 126/170/127 129/178/130 100/174/105
f 100/174/105 129/178/130 130/177/128
f 128/176/129 132/180/131 131/179/132 99/175/103
